<svg width="32" height="32" viewBox="0 0 32 32" fill="none" xmlns="http://www.w3.org/2000/svg">
<rect width="32" height="32" rx="16" fill="#DFD8C5"/>
<path d="M15.2187 20.5887L10.8347 9.26768H10.5706V17.7012C10.5706 18.2294 10.6175 18.6403 10.7114 18.9337C10.8053 19.2154 10.999 19.4208 11.2924 19.5499C11.5976 19.6673 12.0554 19.7436 12.6657 19.7788V20.4655C12.431 20.442 12.0965 20.4303 11.6622 20.4303C11.2279 20.4185 10.7642 20.4127 10.2713 20.4127C9.79 20.4127 9.34984 20.4185 8.95076 20.4303C8.55167 20.4303 8.23475 20.442 8 20.4655V19.7788C8.51646 19.7436 8.90967 19.6673 9.17964 19.5499C9.44961 19.4208 9.63155 19.2213 9.72545 18.9513C9.81935 18.6696 9.8663 18.2823 9.8663 17.7893V10.2008C9.8663 9.76653 9.81935 9.44961 9.72545 9.25007C9.64328 9.05053 9.46722 8.90967 9.19725 8.82751C8.93902 8.74535 8.53994 8.6984 8 8.68666V8C8.25823 8.01174 8.59862 8.02348 9.02118 8.03521C9.45548 8.04695 9.93086 8.05282 10.4473 8.05282C10.9873 8.05282 11.492 8.04695 11.9615 8.03521C12.431 8.02348 12.8418 8.01174 13.1939 8L16.7505 17.3139L16.1871 17.6132L19.4619 8C19.9079 8.02348 20.3129 8.04108 20.6768 8.05282C21.0406 8.05282 21.4104 8.05282 21.786 8.05282C22.3611 8.05282 22.9069 8.04695 23.4234 8.03521C23.9398 8.02348 24.3507 8.01174 24.6558 8V8.68666C24.1159 8.6984 23.711 8.74535 23.441 8.82751C23.171 8.89794 22.995 9.03879 22.9128 9.25007C22.8306 9.44961 22.7895 9.76653 22.7895 10.2008V18.2646C22.7895 18.6872 22.8306 19.0041 22.9128 19.2154C23.0067 19.4149 23.1828 19.5558 23.441 19.638C23.711 19.7084 24.1159 19.7553 24.6558 19.7788V20.4655C24.3155 20.442 23.8635 20.4303 23.3001 20.4303C22.7485 20.4185 22.144 20.4127 21.4867 20.4127C20.7941 20.4127 20.172 20.4185 19.6204 20.4303C19.0804 20.4303 18.652 20.442 18.3351 20.4655V19.7788C18.8515 19.7553 19.233 19.7084 19.4795 19.638C19.7377 19.5558 19.9079 19.4091 19.9901 19.1978C20.0723 18.9865 20.1133 18.6755 20.1133 18.2646V8.98597H19.8492L15.8525 20.5887H15.2187Z" fill="#304687"/>
<path d="M8 24H24.6558" stroke="#C9960A" stroke-width="1.36451" stroke-linecap="round" stroke-dasharray="2.73 2.73"/>
</svg>
