<svg width="30" height="30" viewBox="0 0 30 30" fill="none" xmlns="http://www.w3.org/2000/svg">
<g clip-path="url(#clip0_26_530)">
<path fill-rule="evenodd" clip-rule="evenodd" d="M5.45455 0C4.00791 0 2.62053 0.574674 1.5976 1.5976C0.574674 2.62053 0 4.00791 0 5.45455V24.5455C0 25.9921 0.574674 27.3795 1.5976 28.4024C2.62053 29.4253 4.00791 30 5.45455 30H24.5455C25.9921 30 27.3795 29.4253 28.4024 28.4024C29.4253 27.3795 30 25.9921 30 24.5455V5.45455C30 4.00791 29.4253 2.62053 28.4024 1.5976C27.3795 0.574674 25.9921 0 24.5455 0H5.45455ZM7.92955 6.96818C9.90188 5.29111 12.407 4.37116 14.9959 4.37318C17.585 4.3698 20.0907 5.28854 22.064 6.96475C24.0372 8.64097 25.3491 10.9651 25.7645 13.5207C26.1798 16.0762 25.6716 18.6962 24.3307 20.9111C22.9899 23.1259 20.9042 24.791 18.4473 25.6077C17.895 25.7127 17.7177 25.3909 17.7177 25.1005V22.0841C17.7446 21.7155 17.6921 21.3454 17.5637 20.9989C17.4352 20.6524 17.2338 20.3375 16.9732 20.0755C19.4005 19.8068 21.9477 18.8877 21.9477 14.7C21.9648 13.6166 21.5633 12.5684 20.8268 11.7736C21.1589 10.8339 21.1198 9.80287 20.7177 8.89091C20.7177 8.89091 19.8095 8.59909 17.7259 10.0091C15.9398 9.51894 14.0547 9.51894 12.2686 10.0091C10.1891 8.59909 9.27273 8.89091 9.27273 8.89091C8.8711 9.80313 8.83305 10.8343 9.16636 11.7736C8.43057 12.5678 8.02869 13.6147 8.04409 14.6973C8.04409 18.8741 10.5886 19.8082 13.0077 20.0836C12.6113 20.4699 12.3657 20.9848 12.315 21.5359C12.0477 21.686 11.7533 21.7817 11.4488 21.8175C11.1444 21.8532 10.8358 21.8282 10.541 21.7441C10.2463 21.6599 9.97107 21.5181 9.73138 21.327C9.49168 21.1358 9.29223 20.8991 9.14455 20.6305C8.97019 20.3286 8.72919 20.0706 8.43992 19.8761C8.15065 19.6816 7.82077 19.5558 7.47545 19.5082C7.47545 19.5082 6.41182 19.4945 7.40182 20.1723C7.98273 20.5418 8.41091 21.1077 8.61136 21.765C8.61136 21.765 9.23727 23.8582 12.2686 23.2009C12.2727 23.8882 12.2714 24.4677 12.2686 24.8236V25.0964C12.2686 25.3827 12.0968 25.7032 11.5527 25.6077C9.71874 24.9984 8.07982 23.9122 6.80405 22.4606C5.52829 21.0089 4.66159 19.2441 4.29283 17.347C3.92408 15.4499 4.06654 13.4889 4.70561 11.6651C5.34469 9.84124 6.45737 8.22019 7.92955 6.96818Z" fill="#304687"/>
</g>
<defs>
<clipPath id="clip0_26_530">
<rect width="30" height="30" fill="white"/>
</clipPath>
</defs>
</svg>
