<svg width="220" height="62" viewBox="0 0 220 62" fill="none" xmlns="http://www.w3.org/2000/svg">
<path d="M19.1516 44.271L9.5129 19.3806H8.93226V37.9226C8.93226 39.0839 9.03548 39.9871 9.24194 40.6323C9.44839 41.2516 9.87419 41.7032 10.5194 41.9871C11.1903 42.2452 12.1968 42.4129 13.5387 42.4903V44C13.0226 43.9484 12.2871 43.9226 11.3323 43.9226C10.3774 43.8968 9.35806 43.8839 8.27419 43.8839C7.21613 43.8839 6.24839 43.8968 5.37097 43.9226C4.49355 43.9226 3.79677 43.9484 3.28065 44V42.4903C4.41613 42.4129 5.28065 42.2452 5.87419 41.9871C6.46774 41.7032 6.86774 41.2645 7.07419 40.671C7.28065 40.0516 7.38387 39.2 7.38387 38.1161V21.4323C7.38387 20.4774 7.28065 19.7806 7.07419 19.3419C6.89355 18.9032 6.50645 18.5935 5.9129 18.4129C5.34516 18.2323 4.46774 18.129 3.28065 18.1032V16.5935C3.84839 16.6194 4.59677 16.6452 5.52581 16.671C6.48065 16.6968 7.52581 16.7097 8.66129 16.7097C9.84839 16.7097 10.9581 16.6968 11.9903 16.671C13.0226 16.6452 13.9258 16.6194 14.7 16.5935L22.5194 37.071L21.2806 37.729L28.4806 16.5935C29.4613 16.6452 30.3516 16.6839 31.1516 16.7097C31.9516 16.7097 32.7645 16.7097 33.5903 16.7097C34.8548 16.7097 36.0548 16.6968 37.1903 16.671C38.3258 16.6452 39.229 16.6194 39.9 16.5935V18.1032C38.7129 18.129 37.8226 18.2323 37.229 18.4129C36.6355 18.5677 36.2484 18.8774 36.0677 19.3419C35.8871 19.7806 35.7968 20.4774 35.7968 21.4323V39.1613C35.7968 40.0903 35.8871 40.7871 36.0677 41.2516C36.2742 41.6903 36.6613 42 37.229 42.1806C37.8226 42.3355 38.7129 42.4387 39.9 42.4903V44C39.1516 43.9484 38.1581 43.9226 36.9194 43.9226C35.7065 43.8968 34.3774 43.8839 32.9323 43.8839C31.4097 43.8839 30.0419 43.8968 28.829 43.9226C27.6419 43.9226 26.7 43.9484 26.0032 44V42.4903C27.1387 42.4387 27.9774 42.3355 28.5194 42.1806C29.0871 42 29.4613 41.6774 29.6419 41.2129C29.8226 40.7484 29.9129 40.0645 29.9129 39.1613V18.7613H29.3323L20.5452 44.271H19.1516ZM48.8044 44.5419C47.1012 44.5419 45.7464 44.1032 44.7399 43.2258C43.7335 42.3226 43.2302 41.1097 43.2302 39.5871C43.2302 38.4 43.5012 37.4452 44.0431 36.7226C44.6109 35.9742 45.3335 35.3677 46.2109 34.9032C47.0883 34.4387 48.0173 34.0645 48.998 33.7806C50.0044 33.471 50.9464 33.1871 51.8238 32.929C52.7012 32.6452 53.4109 32.3226 53.9528 31.9613C54.5206 31.5742 54.8044 31.071 54.8044 30.4516V28.5935C54.8044 27.4323 54.4948 26.5419 53.8754 25.9226C53.256 25.3032 52.3399 24.9935 51.127 24.9935C50.2496 24.9935 49.527 25.1226 48.9593 25.3806C48.3915 25.6387 48.1077 25.9742 48.1077 26.3871C48.1077 26.6968 48.2109 27.0065 48.4173 27.3161C48.6238 27.6258 48.8173 27.9613 48.998 28.3226C49.2044 28.6581 49.3077 29.0323 49.3077 29.4452C49.3077 30.0129 49.0754 30.4774 48.6109 30.8387C48.1722 31.1742 47.5786 31.3419 46.8302 31.3419C45.9786 31.3419 45.2948 31.0968 44.7786 30.6065C44.2883 30.0903 44.0431 29.4194 44.0431 28.5935C44.0431 27.5613 44.4044 26.671 45.127 25.9226C45.8754 25.1484 46.9077 24.5419 48.2238 24.1032C49.5399 23.6645 51.0496 23.4452 52.7528 23.4452C54.5077 23.4452 55.927 23.6903 57.0109 24.1806C58.0948 24.6452 58.8819 25.4194 59.3722 26.5032C59.8883 27.5613 60.1464 28.9806 60.1464 30.7613V40.7484C60.1464 41.3419 60.2367 41.7677 60.4173 42.0258C60.598 42.2839 60.8948 42.4129 61.3077 42.4129C61.6431 42.4129 61.9915 42.3355 62.3528 42.1806C62.7141 42.0258 63.0754 41.8194 63.4367 41.5613L64.056 42.8C63.3851 43.3677 62.6238 43.7935 61.7722 44.0774C60.9206 44.3871 59.9657 44.5419 58.9077 44.5419C56.2238 44.5419 54.869 43.4839 54.8431 41.3677C54.0948 42.4258 53.2173 43.2258 52.2109 43.7677C51.2044 44.2839 50.069 44.5419 48.8044 44.5419ZM51.2819 41.6774C51.9786 41.6774 52.6238 41.5226 53.2173 41.2129C53.8109 40.8774 54.3399 40.4 54.8044 39.7806V32.5806C54.5722 32.9677 54.2109 33.3161 53.7206 33.6258C53.256 33.9097 52.727 34.1935 52.1335 34.4774C51.5399 34.7613 50.9722 35.0839 50.4302 35.4452C49.8883 35.8065 49.4367 36.2581 49.0754 36.8C48.7141 37.3161 48.5335 37.9742 48.5335 38.7742C48.5335 39.6774 48.7786 40.3871 49.269 40.9032C49.7593 41.4194 50.4302 41.6774 51.2819 41.6774ZM65.5675 44V42.4903C66.9611 42.4645 67.9159 42.2581 68.4321 41.871C68.974 41.4581 69.245 40.7355 69.245 39.7032V28.9032C69.245 27.6903 68.9611 26.8387 68.3933 26.3484C67.8514 25.8323 66.9095 25.5484 65.5675 25.4968V23.9871C66.2901 24.0129 66.8966 24.0387 67.3869 24.0645C67.903 24.0903 68.4579 24.1032 69.0514 24.1032C71.1675 24.1032 73.0127 23.9226 74.5869 23.5613V39.3935C74.5869 40.529 74.9353 41.329 75.6321 41.7935C76.3546 42.2323 77.6062 42.4645 79.3869 42.4903V44C78.8966 43.9742 78.2385 43.9613 77.4127 43.9613C76.6127 43.9355 75.7353 43.9097 74.7804 43.8839C73.8514 43.8581 72.9353 43.8452 72.0321 43.8452C70.7159 43.8452 69.4514 43.871 68.2385 43.9226C67.0514 43.9484 66.1611 43.9742 65.5675 44ZM81.0901 31.1871C80.445 31.1871 79.9288 31.0065 79.5417 30.6452C79.1546 30.2839 78.9611 29.8194 78.9611 29.2516C78.9611 28.8645 79.0256 28.529 79.1546 28.2452C79.2837 27.9355 79.4127 27.6516 79.5417 27.3935C79.6708 27.1097 79.7353 26.8387 79.7353 26.5806C79.7353 26.0129 79.374 25.729 78.6514 25.729C78.1095 25.729 77.5546 25.8581 76.9869 26.1161C76.445 26.3742 75.9417 26.7355 75.4772 27.2C75.0385 27.6387 74.703 28.1548 74.4708 28.7484L74.3933 27.1226C75.0127 25.9613 75.8514 25.0581 76.9095 24.4129C77.9675 23.7677 79.0772 23.4452 80.2385 23.4452C81.4514 23.4452 82.4062 23.8065 83.103 24.529C83.8256 25.2258 84.1869 26.1935 84.1869 27.4323C84.1869 28.5677 83.903 29.4839 83.3353 30.1806C82.7675 30.8516 82.0192 31.1871 81.0901 31.1871ZM86.2394 44V42.4903C87.6072 42.4645 88.562 42.2581 89.1039 41.871C89.6459 41.4839 89.9168 40.7613 89.9168 39.7032V28.9032C89.9168 27.7419 89.6459 26.9032 89.1039 26.3871C88.5878 25.8452 87.633 25.5484 86.2394 25.4968V23.9871C86.7555 24.0129 87.2846 24.0387 87.8265 24.0645C88.3684 24.0903 88.9104 24.1032 89.4523 24.1032C90.562 24.1032 91.5943 24.0645 92.5491 23.9871C93.5297 23.8839 94.433 23.7419 95.2588 23.5613V39.7032C95.2588 40.7613 95.5297 41.4839 96.0717 41.871C96.6136 42.2581 97.5684 42.4645 98.9362 42.4903V44C98.5491 43.9742 98.0072 43.9613 97.3104 43.9613C96.6394 43.9355 95.891 43.9097 95.0652 43.8839C94.2652 43.8581 93.4652 43.8452 92.6652 43.8452C91.4523 43.8452 90.2265 43.871 88.9878 43.9226C87.7749 43.9484 86.8588 43.9742 86.2394 44ZM92.433 20C91.5814 20 90.8201 19.729 90.1491 19.1871C89.5039 18.6452 89.1814 17.9097 89.1814 16.9806C89.1814 16.0258 89.5039 15.2774 90.1491 14.7355C90.8201 14.1935 91.5814 13.9226 92.433 13.9226C93.2846 13.9226 94.033 14.1935 94.6781 14.7355C95.3491 15.2774 95.6846 16.0129 95.6846 16.9419C95.6846 17.8968 95.3491 18.6452 94.6781 19.1871C94.033 19.729 93.2846 20 92.433 20ZM107.211 44.5419C105.507 44.5419 104.153 44.1032 103.146 43.2258C102.14 42.3226 101.636 41.1097 101.636 39.5871C101.636 38.4 101.907 37.4452 102.449 36.7226C103.017 35.9742 103.74 35.3677 104.617 34.9032C105.495 34.4387 106.424 34.0645 107.404 33.7806C108.411 33.471 109.353 33.1871 110.23 32.929C111.107 32.6452 111.817 32.3226 112.359 31.9613C112.927 31.5742 113.211 31.071 113.211 30.4516V28.5935C113.211 27.4323 112.901 26.5419 112.282 25.9226C111.662 25.3032 110.746 24.9935 109.533 24.9935C108.656 24.9935 107.933 25.1226 107.366 25.3806C106.798 25.6387 106.514 25.9742 106.514 26.3871C106.514 26.6968 106.617 27.0065 106.824 27.3161C107.03 27.6258 107.224 27.9613 107.404 28.3226C107.611 28.6581 107.714 29.0323 107.714 29.4452C107.714 30.0129 107.482 30.4774 107.017 30.8387C106.578 31.1742 105.985 31.3419 105.236 31.3419C104.385 31.3419 103.701 31.0968 103.185 30.6065C102.695 30.0903 102.449 29.4194 102.449 28.5935C102.449 27.5613 102.811 26.671 103.533 25.9226C104.282 25.1484 105.314 24.5419 106.63 24.1032C107.946 23.6645 109.456 23.4452 111.159 23.4452C112.914 23.4452 114.333 23.6903 115.417 24.1806C116.501 24.6452 117.288 25.4194 117.778 26.5032C118.295 27.5613 118.553 28.9806 118.553 30.7613V40.7484C118.553 41.3419 118.643 41.7677 118.824 42.0258C119.004 42.2839 119.301 42.4129 119.714 42.4129C120.049 42.4129 120.398 42.3355 120.759 42.1806C121.12 42.0258 121.482 41.8194 121.843 41.5613L122.462 42.8C121.791 43.3677 121.03 43.7935 120.178 44.0774C119.327 44.3871 118.372 44.5419 117.314 44.5419C114.63 44.5419 113.275 43.4839 113.249 41.3677C112.501 42.4258 111.624 43.2258 110.617 43.7677C109.611 44.2839 108.475 44.5419 107.211 44.5419ZM109.688 41.6774C110.385 41.6774 111.03 41.5226 111.624 41.2129C112.217 40.8774 112.746 40.4 113.211 39.7806V32.5806C112.978 32.9677 112.617 33.3161 112.127 33.6258C111.662 33.9097 111.133 34.1935 110.54 34.4774C109.946 34.7613 109.378 35.0839 108.836 35.4452C108.295 35.8065 107.843 36.2581 107.482 36.8C107.12 37.3161 106.94 37.9742 106.94 38.7742C106.94 39.6774 107.185 40.3871 107.675 40.9032C108.166 41.4194 108.836 41.6774 109.688 41.6774ZM123.835 44V42.4903C125.203 42.4645 126.158 42.2581 126.7 41.871C127.242 41.4839 127.513 40.7613 127.513 39.7032V19.0323C127.513 17.871 127.242 17.0323 126.7 16.5161C126.184 15.9742 125.229 15.6774 123.835 15.6258V14.1161C124.377 14.1419 124.919 14.1677 125.461 14.1935C126.003 14.2194 126.532 14.2323 127.048 14.2323C128.158 14.2323 129.203 14.1935 130.184 14.1161C131.164 14.0129 132.055 13.871 132.855 13.6903V39.7032C132.855 40.7613 133.126 41.4839 133.668 41.871C134.235 42.2581 135.19 42.4645 136.532 42.4903V44C136.145 43.9742 135.603 43.9613 134.906 43.9613C134.235 43.9355 133.487 43.9097 132.661 43.8839C131.861 43.8581 131.061 43.8452 130.261 43.8452C129.074 43.8452 127.861 43.871 126.622 43.9226C125.384 43.9484 124.455 43.9742 123.835 44ZM138.646 44V42.4903C140.013 42.4645 140.968 42.2581 141.51 41.871C142.052 41.4839 142.323 40.7613 142.323 39.7032V28.9032C142.323 27.7419 142.052 26.9032 141.51 26.3871C140.994 25.8452 140.039 25.5484 138.646 25.4968V23.9871C139.162 24.0129 139.691 24.0387 140.233 24.0645C140.775 24.0903 141.317 24.1032 141.859 24.1032C142.968 24.1032 144.001 24.0645 144.955 23.9871C145.936 23.8839 146.839 23.7419 147.665 23.5613V39.7032C147.665 40.7613 147.936 41.4839 148.478 41.871C149.02 42.2581 149.975 42.4645 151.342 42.4903V44C150.955 43.9742 150.413 43.9613 149.717 43.9613C149.046 43.9355 148.297 43.9097 147.471 43.8839C146.671 43.8581 145.871 43.8452 145.071 43.8452C143.859 43.8452 142.633 43.871 141.394 43.9226C140.181 43.9484 139.265 43.9742 138.646 44ZM144.839 20C143.988 20 143.226 19.729 142.555 19.1871C141.91 18.6452 141.588 17.9097 141.588 16.9806C141.588 16.0258 141.91 15.2774 142.555 14.7355C143.226 14.1935 143.988 13.9226 144.839 13.9226C145.691 13.9226 146.439 14.1935 147.084 14.7355C147.755 15.2774 148.091 16.0129 148.091 16.9419C148.091 17.8968 147.755 18.6452 147.084 19.1871C146.439 19.729 145.691 20 144.839 20ZM163.466 44.5419C161.556 44.5419 159.904 44.129 158.511 43.3032C157.117 42.4516 156.033 41.2516 155.259 39.7032C154.511 38.129 154.136 36.271 154.136 34.129C154.136 31.9097 154.536 30 155.336 28.4C156.136 26.8 157.272 25.5742 158.743 24.7226C160.24 23.871 162.007 23.4452 164.046 23.4452C165.517 23.4452 166.82 23.6774 167.956 24.1419C169.091 24.5806 169.982 25.2 170.627 26C171.272 26.7742 171.595 27.6903 171.595 28.7484C171.595 29.729 171.285 30.5419 170.666 31.1871C170.072 31.8323 169.272 32.1548 168.266 32.1548C167.517 32.1548 166.911 31.9613 166.446 31.5742C165.982 31.1871 165.749 30.6839 165.749 30.0645C165.749 29.4968 165.904 29.0065 166.214 28.5935C166.524 28.1806 166.82 27.8065 167.104 27.471C167.414 27.1097 167.569 26.7226 167.569 26.3097C167.569 25.9226 167.349 25.6258 166.911 25.4194C166.498 25.1871 165.956 25.071 165.285 25.071C163.53 25.071 162.175 25.8194 161.22 27.3161C160.266 28.7871 159.788 30.8516 159.788 33.5097C159.788 36.1677 160.253 38.2194 161.182 39.6645C162.136 41.0839 163.517 41.7935 165.324 41.7935C166.511 41.7935 167.543 41.471 168.42 40.8258C169.298 40.1806 170.033 39.2129 170.627 37.9226L171.982 38.6968C171.285 40.5806 170.201 42.0258 168.73 43.0323C167.259 44.0387 165.504 44.5419 163.466 44.5419ZM181.226 44.5419C179.523 44.5419 178.168 44.1032 177.162 43.2258C176.155 42.3226 175.652 41.1097 175.652 39.5871C175.652 38.4 175.923 37.4452 176.465 36.7226C177.033 35.9742 177.755 35.3677 178.633 34.9032C179.51 34.4387 180.439 34.0645 181.42 33.7806C182.426 33.471 183.368 33.1871 184.246 32.929C185.123 32.6452 185.833 32.3226 186.375 31.9613C186.942 31.5742 187.226 31.071 187.226 30.4516V28.5935C187.226 27.4323 186.917 26.5419 186.297 25.9226C185.678 25.3032 184.762 24.9935 183.549 24.9935C182.671 24.9935 181.949 25.1226 181.381 25.3806C180.813 25.6387 180.53 25.9742 180.53 26.3871C180.53 26.6968 180.633 27.0065 180.839 27.3161C181.046 27.6258 181.239 27.9613 181.42 28.3226C181.626 28.6581 181.73 29.0323 181.73 29.4452C181.73 30.0129 181.497 30.4774 181.033 30.8387C180.594 31.1742 180.001 31.3419 179.252 31.3419C178.401 31.3419 177.717 31.0968 177.201 30.6065C176.71 30.0903 176.465 29.4194 176.465 28.5935C176.465 27.5613 176.826 26.671 177.549 25.9226C178.297 25.1484 179.33 24.5419 180.646 24.1032C181.962 23.6645 183.471 23.4452 185.175 23.4452C186.93 23.4452 188.349 23.6903 189.433 24.1806C190.517 24.6452 191.304 25.4194 191.794 26.5032C192.31 27.5613 192.568 28.9806 192.568 30.7613V40.7484C192.568 41.3419 192.659 41.7677 192.839 42.0258C193.02 42.2839 193.317 42.4129 193.73 42.4129C194.065 42.4129 194.413 42.3355 194.775 42.1806C195.136 42.0258 195.497 41.8194 195.859 41.5613L196.478 42.8C195.807 43.3677 195.046 43.7935 194.194 44.0774C193.342 44.3871 192.388 44.5419 191.33 44.5419C188.646 44.5419 187.291 43.4839 187.265 41.3677C186.517 42.4258 185.639 43.2258 184.633 43.7677C183.626 44.2839 182.491 44.5419 181.226 44.5419ZM183.704 41.6774C184.401 41.6774 185.046 41.5226 185.639 41.2129C186.233 40.8774 186.762 40.4 187.226 39.7806V32.5806C186.994 32.9677 186.633 33.3161 186.142 33.6258C185.678 33.9097 185.149 34.1935 184.555 34.4774C183.962 34.7613 183.394 35.0839 182.852 35.4452C182.31 35.8065 181.859 36.2581 181.497 36.8C181.136 37.3161 180.955 37.9742 180.955 38.7742C180.955 39.6774 181.201 40.3871 181.691 40.9032C182.181 41.4194 182.852 41.6774 183.704 41.6774ZM207.993 44.5419C206.883 44.5419 205.954 44.4258 205.206 44.1935C204.457 43.9613 203.838 43.729 203.348 43.4968C202.857 43.2645 202.419 43.1484 202.032 43.1484C201.412 43.1484 200.961 43.5484 200.677 44.3484H199.167C199.244 43.6516 199.296 42.9419 199.322 42.2194C199.348 41.471 199.361 40.6452 199.361 39.7419C199.361 38.8129 199.361 37.7548 199.361 36.5677H200.832C201.27 38.6839 202.044 40.2839 203.154 41.3677C204.29 42.4516 205.735 42.9935 207.49 42.9935C208.651 42.9935 209.554 42.7484 210.199 42.2581C210.844 41.7419 211.167 41.0323 211.167 40.129C211.167 39.2516 210.806 38.529 210.083 37.9613C209.386 37.3935 208.135 36.8387 206.328 36.2968C204.006 35.6 202.303 34.6968 201.219 33.5871C200.135 32.4516 199.593 31.0581 199.593 29.4065C199.593 27.6 200.186 26.1548 201.373 25.071C202.586 23.9871 204.199 23.4452 206.212 23.4452C207.244 23.4452 208.122 23.5613 208.844 23.7935C209.567 24 210.173 24.2323 210.664 24.4903C211.18 24.7226 211.619 24.8387 211.98 24.8387C212.238 24.8387 212.457 24.7484 212.638 24.5677C212.819 24.3613 212.973 24.0645 213.103 23.6774H214.612C214.561 24.2194 214.522 24.8 214.496 25.4194C214.47 26.0129 214.444 26.7097 214.419 27.5097C214.419 28.3097 214.432 29.3032 214.457 30.4903H212.948C212.561 28.7355 211.825 27.3806 210.741 26.4258C209.683 25.471 208.419 24.9935 206.948 24.9935C205.915 24.9935 205.103 25.2258 204.509 25.6903C203.941 26.1548 203.657 26.8258 203.657 27.7032C203.657 28.6065 204.044 29.3548 204.819 29.9484C205.593 30.5419 206.935 31.1226 208.844 31.6903C211.09 32.3097 212.715 33.1355 213.722 34.1677C214.754 35.2 215.27 36.5548 215.27 38.2323C215.27 40.2194 214.625 41.7677 213.335 42.8774C212.044 43.9871 210.264 44.5419 207.993 44.5419Z" fill="#304687"/>
<path d="M1.5 60H218.5" stroke="#C9960A" stroke-width="3" stroke-linecap="round" stroke-dasharray="6 6"/>
</svg>
